<svg xmlns="http://www.w3.org/2000/svg" viewBox="0 0 32 32"><title>file_type_pug</title>
	<path fill="#56332B" d="M21.1,6.9c0,0,1.5-0.3,2.1-0.1c0.6,0.1,2.8,0.4,3.6,1.1c0.8,0.7,4.7,4.3,4.8,4.7c0.2,0.4-1.8,1.9-2.3,2.6
		c-0.5,0.8-1.4,3.3-1.9,3.4c-0.6,0.2-0.2-0.6-1-1.3"/>
	<path fill="#56332B" d="M10.9,6.9c0,0-1.5-0.3-2.1-0.1C8.1,6.8,6,7.2,5.2,7.9c-0.8,0.7-4.7,4.3-4.8,4.7c-0.2,0.4,1.8,1.9,2.3,2.6
		c0.5,0.8,1.4,3.3,2,3.4c0.6,0.2,0.2-0.6,1-1.3"/>
	<path fill="#EFCCA3" d="M16,25.7c-11.1-0.9-7.7-3.7-9.4-5.1c-1.3-1.1-1.5-4.7-0.6-7.9c0.8-2.9,2.7-5.4,3.7-5.7
		c2-0.6,4.2-0.8,6.2-0.7c2,0,4.2,0.1,6.2,0.7c1.1,0.3,2.9,2.9,3.7,5.7c0.9,3.2,0.8,6.8-0.6,7.9C23.7,21.9,27.2,24.7,16,25.7z"/>
	<path d="M25,14c0,1.2-1,2.2-2.2,2.2c-1.2,0-2.2-1-2.2-2.2c0-1.2,1-2.2,2.2-2.2C24,11.9,25,12.8,25,14z"/>
	<path fill="#FFFFFF" d="M22.9,13.1c0,0.3-0.3,0.6-0.6,0.6c-0.3,0-0.6-0.2-0.6-0.6s0.2-0.6,0.6-0.6C22.6,12.5,22.9,12.8,22.9,13.1z"
		/>
	<path fill="#56332B" d="M16,25.9c0,0-5.1-0.2-5.9-1.2c-0.7-0.8-2.2-3-0.7-6.5c0.9-2.1,3.4-2.8,4.6-3.4c-0.1-1.2,2-1.1,2-1.1
		s2.1-0.2,2,1.1c1.2,0.6,3.7,1.3,4.6,3.4c1.5,3.5,0,5.7-0.7,6.5C21.1,25.7,16,25.9,16,25.9z"/>
	<path fill="none" stroke="#000000" stroke-width="0.75" stroke-miterlimit="10" d="M13.1,22.6c0.1-1,0.7-3.9,2.9-3.9
		c2.1,0,2.7,3,2.9,3.9"/>
	<path d="M7,14c0,1.2,1,2.2,2.2,2.2c1.2,0,2.2-1,2.2-2.2c0-1.2-1-2.2-2.2-2.2C8,11.9,7,12.8,7,14z"/>
	<path fill="#FFFFFF" d="M9.2,13.1c0,0.3,0.2,0.6,0.6,0.6c0.3,0,0.6-0.2,0.6-0.6s-0.3-0.6-0.6-0.6C9.4,12.5,9.2,12.8,9.2,13.1z"/>
</svg>
