<svg xmlns="http://www.w3.org/2000/svg" viewBox="0 0 32 32"><title>file_type_pug</title>
<path fill="#56332B" d="M2.6,0.9c0,0,0.2,0,0.3,0C3,0.8,3.3,0.9,3.4,1C3.5,1.1,4,1.5,4,1.6c0,0-0.2,0.2-0.3,0.3S3.5,2.3,3.4,2.3
		c-0.1,0,0-0.1-0.1-0.2"/>
	<path fill="#56332B" d="M1.4,0.9c0,0-0.2,0-0.3,0C1,0.8,0.7,0.9,0.6,1C0.5,1.1,0,1.5,0,1.6c0,0,0.2,0.2,0.3,0.3s0.2,0.4,0.2,0.4
		c0.1,0,0-0.1,0.1-0.2"/>
	<path fill="#EFCCA3" d="M2,3.2C0.6,3.1,1,2.7,0.8,2.6C0.6,2.4,0.6,2,0.7,1.6c0.1-0.4,0.3-0.7,0.5-0.7C1.5,0.8,1.7,0.8,2,0.8
		c0.3,0,0.5,0,0.8,0.1c0.1,0,0.4,0.4,0.5,0.7c0.1,0.4,0.1,0.9-0.1,1C3,2.7,3.4,3.1,2,3.2z"/>
	<circle cx="2.9" cy="1.8" r="0.3"/>
	<circle fill="#FFFFFF" cx="2.8" cy="1.6" r="0.1"/>
	<path fill="#56332B" d="M2,3.2c0,0-0.6,0-0.7-0.1C1.2,3,1,2.7,1.2,2.3C1.3,2,1.6,1.9,1.7,1.9C1.7,1.7,2,1.7,2,1.7s0.3,0,0.3,0.1
		C2.4,1.9,2.7,2,2.8,2.3C3,2.7,2.8,3,2.7,3.1C2.6,3.2,2,3.2,2,3.2z"/>
	<path fill="none" stroke="#000000" stroke-width="0.15" stroke-miterlimit="10" d="M1.6,2.8c0-0.1,0.1-0.5,0.4-0.5s0.3,0.4,0.4,0.5
		"/>
	<circle cx="1.1" cy="1.8" r="0.3"/>
	<circle fill="#FFFFFF" cx="1.2" cy="1.6" r="0.1"/>
</svg>
