<svg xmlns="http://www.w3.org/2000/svg" viewBox="0 0 32 32"><title>file_type_pug</title>
	<path fill="#56332B" d="M7.2-7.9c0,0,1.5-0.3,2.2-0.1C10-7.9,12.2-7.6,13-6.9c0.8,0.7,4.7,4.4,4.8,4.8c0.2,0.4-1.8,1.9-2.3,2.6
		c-0.5,0.8-1.4,3.3-2,3.5c-0.6,0.2-0.2-0.6-1-1.3"/>
	<path fill="#56332B" d="M-3-7.9c0,0-1.5-0.3-2.1-0.1C-5.8-7.9-8-7.6-8.8-6.9c-0.8,0.7-4.7,4.4-4.9,4.8c-0.2,0.4,1.8,1.9,2.3,2.6
		c0.5,0.8,1.4,3.3,2,3.5c0.6,0.2,0.2-0.6,1-1.3"/>
	<path fill="#EFCCA3" d="M2.1,11c-11.2-1-7.8-3.8-9.5-5.2c-1.4-1.1-1.5-4.7-0.6-8C-7.1-5-5.2-7.6-4.2-7.9c2-0.6,4.3-0.8,6.3-0.7
		c2,0,4.2,0.1,6.3,0.7c1.1,0.3,3,2.9,3.8,5.8c0.9,3.2,0.8,6.9-0.6,8C9.9,7.3,13.3,10.1,2.1,11z"/>
	<path d="M11.2-0.7c0,1.2-1,2.2-2.2,2.2c-1.2,0-2.2-1-2.2-2.2c0-1.2,1-2.2,2.2-2.2C10.2-2.9,11.2-1.9,11.2-0.7z"/>
	<path fill="#FFFFFF" d="M9-1.6c0,0.3-0.3,0.6-0.6,0.6c-0.3,0-0.6-0.3-0.6-0.6s0.3-0.6,0.6-0.6C8.7-2.2,9-1.9,9-1.6z"/>
	<path fill="#56332B" d="M2.1,11.2c0,0-5.1-0.2-6-1.2C-4.5,9.2-6,7-4.6,3.5C-3.7,1.4-1.2,0.7,0,0.1c-0.1-1.3,2-1.1,2-1.1
		s2.2-0.2,2,1.1c1.2,0.6,3.7,1.3,4.6,3.4C10.2,7,8.7,9.2,8,10C7.2,11,2.1,11.2,2.1,11.2z"/>
	<path fill="none" stroke="#000000" stroke-width="0.15" stroke-miterlimit="10" d="M-0.8,8c0.1-1,0.8-4,2.9-4C4.2,4,4.8,7,5,8"/>
	<path d="M-7-0.7c0,1.2,1,2.2,2.2,2.2s2.2-1,2.2-2.2c0-1.2-1-2.2-2.2-2.2S-7-1.9-7-0.7z"/>
	<circle fill="#FFFFFF" cx="-4.3" cy="-1.6" r="0.6"/>
</svg>
